<svg id="info" xmlns="http://www.w3.org/2000/svg" xmlns:xlink="http://www.w3.org/1999/xlink" width="56" height="56" viewBox="0 0 56 56">
  <defs>
    <linearGradient id="linear-gradient" x1="0.5" x2="0.5" y2="1" gradientUnits="objectBoundingBox">
      <stop offset="0" stop-color="#427dfb"/>
      <stop offset="1" stop-color="#3e58f7"/>
    </linearGradient>
  </defs>
  <path id="Path_822" data-name="Path 822" d="M28,56A28,28,0,1,1,56,28,28.031,28.031,0,0,1,28,56Zm0,0" fill="url(#linear-gradient)"/>
  <path id="Path_823" data-name="Path 823" d="M219.615,135.229a3.615,3.615,0,1,1,3.615-3.615A3.618,3.618,0,0,1,219.615,135.229Zm0-5.422a1.807,1.807,0,1,0,1.807,1.807A1.809,1.809,0,0,0,219.615,129.807Zm0,0" transform="translate(-191.615 -113.549)" fill="#fff"/>
  <path id="Path_824" data-name="Path 824" d="M217.037,226.073H208v-5.422h1.807v-7.229H208V208h7.229v12.651h1.807Zm-7.229-1.807h5.422v-1.807h-1.807V209.807h-3.615v1.807h1.807v10.844h-1.807Zm0,0" transform="translate(-184.518 -184.522)" fill="#fff"/>
  <path id="Path_825" data-name="Path 825" d="M163.407,83.706l-1.471-1.05a20.779,20.779,0,0,0-28.983-28.983L131.9,52.2a22.586,22.586,0,0,1,31.5,31.5Zm0,0" transform="translate(-117.03 -42.578)" fill="#fff"/>
  <path id="Path_826" data-name="Path 826" d="M70.591,167.608A22.585,22.585,0,0,1,52.2,131.9l1.47,1.05a20.779,20.779,0,0,0,28.983,28.983l1.05,1.471a22.433,22.433,0,0,1-13.114,4.2Zm0,0" transform="translate(-42.578 -117.03)" fill="#fff"/>
</svg>
