<svg xmlns="http://www.w3.org/2000/svg" xmlns:xlink="http://www.w3.org/1999/xlink" width="56" height="56" viewBox="0 0 56 56">
  <defs>
    <linearGradient id="linear-gradient" x1="0.5" x2="0.5" y2="1" gradientUnits="objectBoundingBox">
      <stop offset="0" stop-color="#427dfb"/>
      <stop offset="1" stop-color="#3e58f7"/>
    </linearGradient>
  </defs>
  <g id="processing" transform="translate(0 0)">
    <path id="Path_842" data-name="Path 842" d="M28.473,56c-15.439,0-28-11.776-28-26.249C.473,15.579,12.514,4,27.507,3.516V0L38.9,7.122l-11.4,7.121v-3.48C16.774,11.237,8.2,19.573,8.2,29.751c0,10.48,9.1,19.008,20.276,19.008s20.276-8.528,20.276-19.008v-.905h7.724v.905c0,14.473-12.562,26.249-28,26.249Zm0,0" transform="translate(-0.473)" fill="url(#linear-gradient)"/>
    <path id="Path_843" data-name="Path 843" d="M168.785,142.945h-14.5a1.814,1.814,0,0,0-1.812,1.813v1.813a1.814,1.814,0,0,0,1.813,1.812v2.079a7.283,7.283,0,0,0,4.156,6.554.609.609,0,0,1,0,1.124,7.284,7.284,0,0,0-4.156,6.555v1.812a1.814,1.814,0,0,0-1.812,1.813v1.812a1.814,1.814,0,0,0,1.813,1.813h14.5a1.814,1.814,0,0,0,1.813-1.812V168.32a1.814,1.814,0,0,0-1.812-1.812v-1.812a7.282,7.282,0,0,0-4.156-6.554.609.609,0,0,1,0-1.126,7.285,7.285,0,0,0,4.155-6.554v-2.079a1.814,1.814,0,0,0,1.813-1.812v-1.812A1.814,1.814,0,0,0,168.785,142.945Zm0,27.187h-14.5V168.32h14.5Zm-1.814-19.671a5.464,5.464,0,0,1-3.117,4.915,2.42,2.42,0,0,0,0,4.4,5.463,5.463,0,0,1,3.117,4.916v1.813H156.1v-1.812a5.463,5.463,0,0,1,3.117-4.916,2.421,2.421,0,0,0,0-4.4,5.463,5.463,0,0,1-3.117-4.915v-2.078h10.875Zm-12.687-3.891v-1.812h14.5l0,1.812Zm0,0" transform="translate(-133.535 -126.793)"/>
    <path id="Path_844" data-name="Path 844" d="M392.66,208.066l1.751-.469.469,1.751-1.751.469Zm0,0" transform="translate(-344.795 -184.11)"/>
    <path id="Path_845" data-name="Path 845" d="M373.977,164.933l1.57-.906.906,1.57-1.57.906Zm0,0" transform="translate(-328.228 -145.469)"/>
    <path id="Path_846" data-name="Path 846" d="M345.609,128.457l1.281-1.281,1.281,1.281-1.281,1.281Zm0,0" transform="translate(-303.823 -112.787)"/>
    <path id="Path_847" data-name="Path 847" d="M309.539,101.152l.906-1.57,1.57.906-.906,1.57Zm0,0" transform="translate(-272.125 -88.316)"/>
    <path id="Path_848" data-name="Path 848" d="M442.754,210.189l1.777-.353.353,1.777-1.777.353Zm0,0" transform="translate(-389.214 -186.095)"/>
    <path id="Path_849" data-name="Path 849" d="M428.957,167.483l1.675-.694.693,1.674-1.675.694Zm0,0" transform="translate(-376.98 -147.919)"/>
    <path id="Path_850" data-name="Path 850" d="M407.605,128.406l1.507-1.007,1.007,1.506-1.507,1.007Zm0,0" transform="translate(-358.047 -112.985)"/>
    <path id="Path_851" data-name="Path 851" d="M379.547,94.521l1.281-1.282,1.281,1.282L380.828,95.8Zm0,0" transform="translate(-333.167 -82.69)"/>
    <path id="Path_852" data-name="Path 852" d="M345.816,67.1l1.008-1.507,1.506,1.007-1.007,1.507Zm0,0" transform="translate(-304.008 -58.167)"/>
  </g>
</svg>
