<svg id="rotation" xmlns="http://www.w3.org/2000/svg" xmlns:xlink="http://www.w3.org/1999/xlink" width="56" height="56" viewBox="0 0 56 56">
  <defs>
    <linearGradient id="linear-gradient" x1="0.5" x2="0.5" y2="1" gradientUnits="objectBoundingBox">
      <stop offset="0" stop-color="#427dfb"/>
      <stop offset="1" stop-color="#3e58f7"/>
    </linearGradient>
  </defs>
  <g id="Group_443" data-name="Group 443" transform="translate(13.29 5.516)">
    <path id="Path_808" data-name="Path 808" d="M43.653,32.952a2.3,2.3,0,1,1,0-4.6h3.218V21H34V37.548H46.871v-4.6Z" transform="translate(-17.452 -8.129)" fill="url(#linear-gradient)"/>
    <path id="Path_809" data-name="Path 809" d="M16,21v7.355h3.218a2.3,2.3,0,1,1,0,4.6H16v4.6H28.871V21Z" transform="translate(-16 -8.129)" fill="url(#linear-gradient)"/>
    <path id="Path_810" data-name="Path 810" d="M23,44l5.516,6.435V47.677H39.548V44Z" transform="translate(-16.565 -9.984)" fill="url(#linear-gradient)"/>
    <path id="Path_811" data-name="Path 811" d="M40.548,13.435,35.032,7V9.758H24v3.677Z" transform="translate(-16.645 -7)" fill="url(#linear-gradient)"/>
  </g>
  <path id="Path_812" data-name="Path 812" d="M9.274,15.452H14.79A6.436,6.436,0,0,1,20.6,19.065h2a8.221,8.221,0,0,0-5.956-5.213,7.168,7.168,0,0,0,2.75-5.626,7.356,7.356,0,0,0-14.71,0,7.166,7.166,0,0,0,2.755,5.63A8.171,8.171,0,0,0,1,21.774v3.613a6.349,6.349,0,0,0,4.6,6.056V53.387a3.676,3.676,0,0,0,6.435,2.365,3.676,3.676,0,0,0,6.435-2.365V35.323H16.629V53.387a1.839,1.839,0,0,1-3.677,0V35.323H11.113V53.387a1.839,1.839,0,0,1-3.677,0V31.71H18.008a3.162,3.162,0,1,0,0-6.323H8.355a.912.912,0,0,1-.919-.9V19.968H5.6v3.613H2.839V21.774a6.388,6.388,0,0,1,6.435-6.323ZM6.516,8.226a5.517,5.517,0,0,1,11.032,0,5.517,5.517,0,0,1-11.032,0Zm-.75,17.161a2.751,2.751,0,0,0,2.589,1.806h9.653a1.355,1.355,0,1,1,0,2.71H7.435a4.562,4.562,0,0,1-4.6-4.516Z" transform="translate(-1 -1)"/>
  <path id="Path_813" data-name="Path 813" d="M54.673,13.856a7.166,7.166,0,0,0,2.755-5.63,7.356,7.356,0,0,0-14.71,0,7.166,7.166,0,0,0,2.751,5.626,8.221,8.221,0,0,0-5.957,5.213h2a6.436,6.436,0,0,1,5.807-3.613h5.516a6.388,6.388,0,0,1,6.435,6.323v1.806H56.51V19.968H54.671v4.516a.912.912,0,0,1-.919.9H44.1a3.162,3.162,0,1,0,0,6.323H54.67V53.387a1.839,1.839,0,0,1-3.677,0V35.323H49.154V53.387a1.839,1.839,0,0,1-3.677,0V35.323H43.638V53.387a3.676,3.676,0,0,0,6.435,2.365,3.676,3.676,0,0,0,6.435-2.365V31.443a6.347,6.347,0,0,0,4.6-6.056V21.774a8.171,8.171,0,0,0-6.433-7.919Zm-4.6-.21a5.474,5.474,0,0,1-5.516-5.419,5.517,5.517,0,0,1,11.032,0A5.474,5.474,0,0,1,50.074,13.645ZM54.67,29.9H44.1a1.355,1.355,0,1,1,0-2.71h9.653a2.751,2.751,0,0,0,2.589-1.806h2.927A4.562,4.562,0,0,1,54.67,29.9Z" transform="translate(-5.106 -1)"/>
  <path id="Path_814" data-name="Path 814" d="M32,51h1.839v1.839H32Z" transform="translate(-4.017 -6.032)"/>
  <path id="Path_815" data-name="Path 815" d="M36,51h1.839v1.839H36Z" transform="translate(-4.406 -6.032)"/>
  <path id="Path_816" data-name="Path 816" d="M40,51h1.839v1.839H40Z" transform="translate(-4.795 -6.032)"/>
  <path id="Path_817" data-name="Path 817" d="M31,5h1.839V6.839H31Z" transform="translate(-3.919 -1.323)"/>
  <path id="Path_818" data-name="Path 818" d="M27,5h1.839V6.839H27Z" transform="translate(-3.53 -1.323)"/>
  <path id="Path_819" data-name="Path 819" d="M23,5h1.839V6.839H23Z" transform="translate(-3.141 -1.323)"/>
</svg>
