<svg id="customer-service" xmlns="http://www.w3.org/2000/svg" xmlns:xlink="http://www.w3.org/1999/xlink" width="56.002" height="56" viewBox="0 0 56.002 56">
  <defs>
    <linearGradient id="linear-gradient" x1="0.5" x2="0.5" y2="1" gradientUnits="objectBoundingBox">
      <stop offset="0" stop-color="#427dfb"/>
      <stop offset="1" stop-color="#3e58f7"/>
    </linearGradient>
  </defs>
  <g id="Group_205" data-name="Group 205" transform="translate(3.558)">
    <path id="Path_624" data-name="Path 624" d="M340.86,17.2a.905.905,0,0,1-.893-1.058l.595-3.468h-2.418a2.719,2.719,0,0,1-2.716-2.716V2.716A2.719,2.719,0,0,1,338.144,0h12.675a2.719,2.719,0,0,1,2.716,2.716V9.959a2.719,2.719,0,0,1-2.716,2.716h-2.456l-7.023,4.389A.907.907,0,0,1,340.86,17.2Z" transform="translate(-301.091)" fill="url(#linear-gradient)"/>
    <rect id="Rectangle_893" data-name="Rectangle 893" width="3.311" height="7.682" transform="translate(7.773 35.659) rotate(135)" fill="url(#linear-gradient)"/>
    <path id="Path_625" data-name="Path 625" d="M165.708,403.7l2.606-2.387-5.432-5.432-2.622,2.371Z" transform="translate(-145.746 -351.21)" fill="url(#linear-gradient)"/>
  </g>
  <path id="Path_626" data-name="Path 626" d="M43.971,113.547a6.338,6.338,0,0,0-4.879-4.231l-6.05-1.1v-.469a9.111,9.111,0,0,0,2.7-2.4h1.828a2.719,2.719,0,0,0,2.716-2.716V91.769a11.769,11.769,0,1,0-23.539,0v6.337a3.627,3.627,0,0,0,2.887,3.546,9.07,9.07,0,0,0,4.356,6.093v.469l-6.051,1.1a6.336,6.336,0,0,0-4.878,4.231l-.362,1.087L9.613,111.55a.907.907,0,0,1,0-1.281l3.576-3.575L6.477,99.982l-4.041,4.041a6.337,6.337,0,0,0,0,8.962l12.236,12.236a6.334,6.334,0,0,0,8.934.027l4.41-4.041-1.375-1.372H46.067Zm-15.456-2.234L25.8,108.6v-.043a9.046,9.046,0,0,0,5.432,0v.043Zm9.053-7.773h-.761a8.992,8.992,0,0,0,.59-1.886,3.586,3.586,0,0,0,1.076-.428v1.409A.906.906,0,0,1,37.569,103.539Zm0-6.991a1.795,1.795,0,0,1,0,3.118ZM18.556,98.107a1.8,1.8,0,0,1,.905-1.559v3.118A1.8,1.8,0,0,1,18.556,98.107Zm.905-4.527v1.034a3.591,3.591,0,0,0-.905.375V91.769a9.959,9.959,0,1,1,19.918,0v3.219a3.558,3.558,0,0,0-.905-.375V93.58h-.905a9.961,9.961,0,0,1-7.088-2.936l-1.06-1.06-1.06,1.06a9.961,9.961,0,0,1-7.088,2.936Zm1.811,6.337V95.356a11.738,11.738,0,0,0,7.243-3.218,11.733,11.733,0,0,0,7.243,3.218v4.561a7.188,7.188,0,0,1-.98,3.621H28.515v1.811H33.29a7.231,7.231,0,0,1-12.017-5.432Zm-10.644,6.776-.983.983-4.152-4.152.983-.983Zm8.523,18.573a4.5,4.5,0,0,1-3.2-1.326L3.714,111.706a4.528,4.528,0,0,1,0-6.4l.5-.5,4.152,4.152-.033.033a2.721,2.721,0,0,0,0,3.841l6.492,6.492a2.7,2.7,0,0,0,1.921.8,2.666,2.666,0,0,0,1.888-.764l.068-.061,4.171,4.171-.52.476A4.5,4.5,0,0,1,19.151,125.267Zm5.056-3.027-4.162-4.162,1.2-1.081,4.155,4.155Zm.622-4.216L21.3,114.5l-3.918,3.544a.925.925,0,0,1-1.28,0l-1.977-1.977.648-1.946A4.528,4.528,0,0,1,18.26,111.1l6.328-1.15,3.926,3.926,3.926-3.926,6.327,1.15a4.527,4.527,0,0,1,3.485,3.023l1.3,3.9Z" transform="translate(-0.579 -71.078)"/>
  <rect id="Rectangle_894" data-name="Rectangle 894" width="10.864" height="1.811" transform="translate(41.516 3.622)" fill="#fff"/>
  <rect id="Rectangle_895" data-name="Rectangle 895" width="7.243" height="1.811" transform="translate(41.516 7.243)" fill="#fff"/>
  <rect id="Rectangle_896" data-name="Rectangle 896" width="1.811" height="1.811" transform="translate(50.57 7.243)" fill="#fff"/>
  <path id="Path_627" data-name="Path 627" d="M9.057,43.788l-.932-1.553L5.672,43.707A23.545,23.545,0,0,1,35.483,26.861l.536-1.729A25.351,25.351,0,0,0,3.84,43.6l-1.716-2.86-1.553.932,3.182,5.3Z" transform="translate(-0.572 -21.284)"/>
  <path id="Path_628" data-name="Path 628" d="M418.374,152.206l-5.3-3.182-3.182,5.3,1.553.932,1.584-2.641a23.559,23.559,0,0,1-3.99,22.428l1.406,1.141a25.353,25.353,0,0,0,4.338-24.024l2.661,1.6Z" transform="translate(-362.811 -132.236)"/>
</svg>
