<svg id="question" xmlns="http://www.w3.org/2000/svg" xmlns:xlink="http://www.w3.org/1999/xlink" width="52.807" height="56" viewBox="0 0 52.807 56">
  <defs>
    <linearGradient id="linear-gradient" x1="0.5" x2="0.5" y2="1" gradientUnits="objectBoundingBox">
      <stop offset="0" stop-color="#427dfb"/>
      <stop offset="1" stop-color="#3e58f7"/>
    </linearGradient>
  </defs>
  <ellipse id="Ellipse_41" data-name="Ellipse 41" cx="13.665" cy="13.426" rx="13.665" ry="13.426" transform="translate(12.738 3.58)" fill="url(#linear-gradient)"/>
  <path id="Path_660" data-name="Path 660" d="M64.375,43.785a9.876,9.876,0,0,0-8.089-7.753l-9.42-1.571V33.1a17.161,17.161,0,1,0-12.645,0v1.36L24.8,36.032a9.877,9.877,0,0,0-8.089,7.753L14.14,56H66.947Zm-1.768.372,2.114,10.037h-5.3L58.6,46.868l-1.795.2.791,7.126H44.837l-1.5-5.236,2.111-2.816,2.744,2.4,3.8-11.4,3.994.666A8.08,8.08,0,0,1,62.607,44.157ZM39.222,40.6l-5.477,4.793L30.9,36.846l3.918-.653Zm7.051-4.408,3.918.653-2.849,8.547L41.865,40.6ZM40.5,41.882l.041.041.041-.041,3.505,3.067-2.732,3.642,1.6,5.6H38.127l1.6-5.6L37,44.949ZM25.188,17.161A15.355,15.355,0,1,1,40.543,32.516,15.372,15.372,0,0,1,25.188,17.161ZM40.543,34.323a17.058,17.058,0,0,0,4.516-.623v1.153l-4.516,4.516-4.516-4.516V33.7A17.058,17.058,0,0,0,40.543,34.323ZM18.479,44.157A8.081,8.081,0,0,1,25.1,37.814l3.994-.666,3.8,11.4,2.744-2.4,2.111,2.816-1.5,5.235H23.487l.792-7.126-1.795-.2-.815,7.326h-5.3Z" transform="translate(-14.14)"/>
  <path id="Path_661" data-name="Path 661" d="M204.919,49.79a3.136,3.136,0,0,1,3.133,3.133v.569a3.117,3.117,0,0,1-.917,2.216l-2.663,2.662v4.846h1.79v-4.1l2.139-2.138a4.893,4.893,0,0,0,1.441-3.482v-.568a4.923,4.923,0,1,0-9.846,0v.448h1.79v-.448A3.136,3.136,0,0,1,204.919,49.79Z" transform="translate(-178.968 -42.63)" fill="#fff"/>
  <path id="Path_662" data-name="Path 662" d="M229.366,210.685a2.685,2.685,0,1,0-2.685,2.685A2.688,2.688,0,0,0,229.366,210.685Zm-3.58,0a.9.9,0,1,1,.9.9A.9.9,0,0,1,225.786,210.685Z" transform="translate(-200.278 -184.493)" fill="#fff"/>
</svg>
