<svg id="map" xmlns="http://www.w3.org/2000/svg" xmlns:xlink="http://www.w3.org/1999/xlink" width="55.997" height="55.997" viewBox="0 0 55.997 55.997">
  <defs>
    <linearGradient id="linear-gradient" x1="0.5" x2="0.5" y2="1" gradientUnits="objectBoundingBox">
      <stop offset="0" stop-color="#427dfb"/>
      <stop offset="1" stop-color="#3e58f7"/>
    </linearGradient>
  </defs>
  <path id="Path_647" data-name="Path 647" d="M132.761,175.36l-4.193-2.995a4.006,4.006,0,0,0-2.345-.752h-.607a2.235,2.235,0,0,1-1.393-.489l-3.658-2.926L120,168v24.386h2.2a4.056,4.056,0,0,0,1.276-.207l2.794-.931a4.034,4.034,0,0,0,2.759-3.83,2.227,2.227,0,0,1,1.525-2.115l1.135-.379a4.031,4.031,0,0,0,2.759-3.828v-2.452a4.042,4.042,0,0,0-1.69-3.284Zm0,0" transform="translate(-106.452 -149.033)" fill="url(#linear-gradient)"/>
  <path id="Path_648" data-name="Path 648" d="M218.063,329.935V320h-4.626A4.294,4.294,0,0,0,210,321.717l-1.016,1.354a4.284,4.284,0,0,0-.857,2.571v2.374a2.484,2.484,0,0,1-1.207,2.13l-1.226.736a4.329,4.329,0,0,0-2.084,3.7,2.5,2.5,0,0,1-.994,1.972l-2.256,1.693-.361.722h28a4.516,4.516,0,1,0,0-9.032Zm0,0" transform="translate(-177.421 -283.873)" fill="url(#linear-gradient)"/>
  <path id="Path_649" data-name="Path 649" d="M107.352,0H96.514V8.129H92V9.935h4.516v37.03h10.838a3.613,3.613,0,0,1,0,7.225H64V56h43.352a5.424,5.424,0,0,0,5.419-5.419V5.419A5.424,5.424,0,0,0,107.352,0Zm3.613,46.541a5.4,5.4,0,0,0-3.613-1.383H98.321V1.806h9.032a3.616,3.616,0,0,1,3.613,3.613Zm0,0" transform="translate(-56.775)"/>
  <path id="Path_650" data-name="Path 650" d="M35.613,400a3.613,3.613,0,1,0,3.613,3.613A3.616,3.616,0,0,0,35.613,400Zm0,5.419a1.806,1.806,0,1,1,1.806-1.806A1.808,1.808,0,0,1,35.613,405.419Zm0,0" transform="translate(-28.387 -354.841)"/>
  <path id="Path_651" data-name="Path 651" d="M14.451,8.129v-.9A7.225,7.225,0,1,0,0,7.225V48.771a7.225,7.225,0,1,0,14.451,0V9.935h4.516V8.129ZM7.225,54.19a5.419,5.419,0,1,1,5.419-5.419A5.424,5.424,0,0,1,7.225,54.19Zm0-12.644a7.2,7.2,0,0,0-5.419,2.462V7.225a5.419,5.419,0,0,1,10.838,0V44.008A7.2,7.2,0,0,0,7.225,41.546Zm0,0"/>
  <path id="Path_652" data-name="Path 652" d="M169.032,23.483a2.59,2.59,0,0,1-2.156-1.153l-5.359-8.038A9.013,9.013,0,0,1,160,9.28V9.032a9.032,9.032,0,1,1,18.063,0V9.28a9,9,0,0,1-1.518,5.01l-5.359,8.039a2.586,2.586,0,0,1-2.155,1.154Zm0,0" transform="translate(-141.936)" fill="url(#linear-gradient)"/>
  <path id="Path_653" data-name="Path 653" d="M197.419,42.838a5.419,5.419,0,1,1,5.419-5.419A5.424,5.424,0,0,1,197.419,42.838Zm0-9.032a3.613,3.613,0,1,0,3.613,3.613A3.616,3.616,0,0,0,197.419,33.806Zm0,0" transform="translate(-170.324 -28.387)" fill="#fff"/>
  <path id="Path_654" data-name="Path 654" d="M320,352h1.806v1.806H320Zm0,0" transform="translate(-283.873 -312.26)" fill="#fff"/>
  <path id="Path_655" data-name="Path 655" d="M288,448h1.806v1.806H288Zm0,0" transform="translate(-255.486 -397.422)" fill="#fff"/>
  <path id="Path_656" data-name="Path 656" d="M352,432h1.806v1.806H352Zm0,0" transform="translate(-312.26 -383.229)" fill="#fff"/>
  <path id="Path_657" data-name="Path 657" d="M160,240h1.806v1.806H160Zm0,0" transform="translate(-141.937 -212.905)" fill="#fff"/>
  <path id="Path_658" data-name="Path 658" d="M192,272h1.806v1.806H192Zm0,0" transform="translate(-170.324 -241.292)" fill="#fff"/>
  <path id="Path_659" data-name="Path 659" d="M144,304h1.806v1.806H144Zm0,0" transform="translate(-127.743 -269.679)" fill="#fff"/>
</svg>
