<svg id="wrench" xmlns="http://www.w3.org/2000/svg" xmlns:xlink="http://www.w3.org/1999/xlink" width="56" height="56" viewBox="0 0 56 56">
  <defs>
    <linearGradient id="linear-gradient" x1="0.5" x2="0.5" y2="1" gradientUnits="objectBoundingBox">
      <stop offset="0" stop-color="#427dfb"/>
      <stop offset="1" stop-color="#3e58f7"/>
    </linearGradient>
  </defs>
  <path id="Path_602" data-name="Path 602" d="M162.13,33.419V22.581h-5.106a23.348,23.348,0,0,0-2.844-6.906l3.614-3.642-7.606-7.664-3.615,3.642a22.953,22.953,0,0,0-6.853-2.866V0H128.964V5.146a22.954,22.954,0,0,0-3.944,1.328l.359,5.269L120,16.258V39.742l5.378,5.419-.358,4.365a23.1,23.1,0,0,0,3.943,1.328V56H139.72V50.855a22.977,22.977,0,0,0,6.854-2.866l3.614,3.642,7.606-7.664-3.614-3.642a23.338,23.338,0,0,0,2.844-6.906Z" transform="translate(-106.13)" fill="url(#linear-gradient)"/>
  <g id="Group_202" data-name="Group 202">
    <path id="Path_603" data-name="Path 603" d="M20.343,11.213V3.239L17.027,0H12.946l0,7.229H7.395L7.4,0H3.316L0,3.239v7.974l5.548,5.419V39.368L0,44.787v7.974L3.316,56H7.4l0-7.229h5.554l0,7.229h4.082l3.316-3.239V44.787l-5.548-5.419V16.632ZM1.849,3.987l2.232-2.18H5.548l0,7.229H14.8l0-7.229h1.467l2.232,2.18v6.478l-5.006,4.89H6.856l-5.006-4.89Zm11.1,34.852H7.4V17.161H9.247V34.323H11.1V17.161h1.849Zm5.548,13.174-2.232,2.18H14.795l0-7.229H5.545l0,7.229H4.082l-2.232-2.18V45.535l5.006-4.89h6.632l5.006,4.89Z" fill="#333"/>
    <rect id="Rectangle_876" data-name="Rectangle 876" width="2" height="2" transform="translate(9.024 35.457)" fill="#333"/>
    <path id="Path_604" data-name="Path 604" d="M141.87,128a13.87,13.87,0,1,0,13.87,13.87A13.886,13.886,0,0,0,141.87,128Zm0,25.891a12.021,12.021,0,1,1,12.021-12.021A12.035,12.035,0,0,1,141.87,153.891Z" transform="translate(-114.535 -113.87)" fill="#fff"/>
    <path id="Path_605" data-name="Path 605" d="M198.473,192a6.473,6.473,0,1,0,6.473,6.473A6.48,6.48,0,0,0,198.473,192Zm0,11.1a4.623,4.623,0,1,1,4.623-4.623A4.629,4.629,0,0,1,198.473,203.1Z" transform="translate(-170.805 -170.473)" fill="#fff"/>
    <rect id="Rectangle_877" data-name="Rectangle 877" width="2" height="2" transform="translate(36 26.673)" fill="#fff"/>
    <rect id="Rectangle_878" data-name="Rectangle 878" width="2" height="2" transform="translate(17.729 26.673)" fill="#fff"/>
    <rect id="Rectangle_879" data-name="Rectangle 879" width="2" height="2" transform="translate(26.433 17.89)" fill="#fff"/>
    <rect id="Rectangle_880" data-name="Rectangle 880" width="2" height="2" transform="translate(26.433 36.433)" fill="#fff"/>
  </g>
</svg>
