<svg id="button" xmlns="http://www.w3.org/2000/svg" xmlns:xlink="http://www.w3.org/1999/xlink" width="56" height="56" viewBox="0 0 56 56">
  <defs>
    <linearGradient id="linear-gradient" y1="0.504" x2="1" y2="0.504" gradientUnits="objectBoundingBox">
      <stop offset="0" stop-color="#427dfb"/>
      <stop offset="1" stop-color="#3e58f7"/>
    </linearGradient>
  </defs>
  <path id="button-2" data-name="button" d="M56,28A28,28,0,0,1,0,28a2.188,2.188,0,0,1,4.375,0A23.625,23.625,0,1,0,28,4.375,2.188,2.188,0,0,1,28,0,27.985,27.985,0,0,1,56,28ZM17.544,6.759l2.829-1.172A2.188,2.188,0,0,0,18.7,1.545L15.87,2.717a2.188,2.188,0,0,0,1.674,4.042Zm-7.333,5.618,2.166-2.166A2.188,2.188,0,0,0,9.284,7.118L7.118,9.284a2.188,2.188,0,0,0,3.094,3.094Zm-7.483,9.18a2.188,2.188,0,0,0,2.858-1.184l1.172-2.83A2.188,2.188,0,0,0,2.717,15.87L1.545,18.7A2.188,2.188,0,0,0,2.729,21.558ZM28,17.063a2.187,2.187,0,0,0-2.187,2.188v6.562H19.25a2.188,2.188,0,1,0,0,4.375h6.562V36.75a2.188,2.188,0,1,0,4.375,0V30.188H36.75a2.188,2.188,0,1,0,0-4.375H30.188V19.25A2.187,2.187,0,0,0,28,17.063Z" fill="url(#linear-gradient)"/>
</svg>
