<svg id="credit-card" xmlns="http://www.w3.org/2000/svg" xmlns:xlink="http://www.w3.org/1999/xlink" width="56" height="56" viewBox="0 0 56 56">
  <defs>
    <linearGradient id="linear-gradient" x1="0.5" x2="0.5" y2="1" gradientUnits="objectBoundingBox">
      <stop offset="0" stop-color="#427dfb"/>
      <stop offset="1" stop-color="#3e58f7"/>
    </linearGradient>
  </defs>
  <path id="Path_588" data-name="Path 588" d="M263.8,130.027H241.831A1.811,1.811,0,0,1,240,128.236V97.791A1.811,1.811,0,0,1,241.831,96H263.8a1.811,1.811,0,0,1,1.831,1.791v30.445A1.811,1.811,0,0,1,263.8,130.027Zm0,0" transform="translate(-213.297 -85.014)" fill="url(#linear-gradient)"/>
  <path id="Path_589" data-name="Path 589" d="M31.8,286.409H9.831A1.831,1.831,0,0,1,8,284.578V280H31.8Zm0,0" transform="translate(-7.084 -248.442)" fill="url(#linear-gradient)"/>
  <path id="Path_590" data-name="Path 590" d="M328,448h5.493v1.831H328Zm0,0" transform="translate(-291.022 -397.493)"/>
  <path id="Path_591" data-name="Path 591" d="M320,32h7.324v1.831H320Zm0,0" transform="translate(-283.944 -28.338)"/>
  <path id="Path_592" data-name="Path 592" d="M400,32h1.831v1.831H400Zm0,0" transform="translate(-354.986 -28.338)"/>
  <path id="Path_593" data-name="Path 593" d="M288,32h1.831v1.831H288Zm0,0" transform="translate(-255.499 -28.338)"/>
  <path id="Path_594" data-name="Path 594" d="M323.662,183.324a1.831,1.831,0,1,1,1.831-1.831h1.831a3.659,3.659,0,0,0-2.747-3.532V176h-1.831v1.961a3.654,3.654,0,0,0,.916,7.194,1.831,1.831,0,1,1-1.831,1.831H320a3.658,3.658,0,0,0,2.747,3.532v1.961h1.831v-1.961a3.654,3.654,0,0,0-.916-7.194Zm0,0" transform="translate(-283.944 -156.24)" fill="#fff"/>
  <path id="Path_595" data-name="Path 595" d="M32,296h1.831v1.831H32Zm0,0" transform="translate(-28.338 -262.596)" fill="#fff"/>
  <path id="Path_596" data-name="Path 596" d="M64,296h1.831v1.831H64Zm0,0" transform="translate(-56.676 -262.596)" fill="#fff"/>
  <path id="Path_597" data-name="Path 597" d="M96,296h1.831v1.831H96Zm0,0" transform="translate(-85.166 -262.596)" fill="#fff"/>
  <path id="Path_598" data-name="Path 598" d="M51.484,0H28a4.521,4.521,0,0,0-4.516,4.516V17.161H2.71A2.713,2.713,0,0,0,0,19.871V36.129a2.713,2.713,0,0,0,2.71,2.71H23.484V51.484A4.521,4.521,0,0,0,28,56H51.484A4.521,4.521,0,0,0,56,51.484V4.516A4.521,4.521,0,0,0,51.484,0ZM28,1.806H51.484a2.713,2.713,0,0,1,2.71,2.71v2.71H25.29V4.516A2.713,2.713,0,0,1,28,1.806ZM19.424,26.127a1.778,1.778,0,0,1-.456.066,1.807,1.807,0,1,1,.452-3.549,3.525,3.525,0,0,0-.4,1.114,3.63,3.63,0,0,0,.4,2.369Zm1.776-.576a1.805,1.805,0,0,1,.99-2.928,1.729,1.729,0,0,1,1.3.215v3.1a1.726,1.726,0,0,1-.9.256,1.8,1.8,0,0,1-1.381-.642ZM25.29,9.032h28.9V46.968H25.29Zm-22.581,28a.9.9,0,0,1-.9-.9V19.871a.9.9,0,0,1,.9-.9H23.484v1.924a3.621,3.621,0,0,0-1.67-.036,3.557,3.557,0,0,0-1.045.408,3.612,3.612,0,1,0,.02,6.239,3.6,3.6,0,0,0,1.792.5,3.543,3.543,0,0,0,.9-.132v9.164ZM51.484,54.193H28a2.713,2.713,0,0,1-2.71-2.71v-2.71h28.9v2.71A2.713,2.713,0,0,1,51.484,54.193Zm0,0"/>
  <path id="Path_599" data-name="Path 599" d="M32,184h5.493v1.831H32Zm0,0" transform="translate(-28.338 -163.235)"/>
</svg>
