<svg id="connection" xmlns="http://www.w3.org/2000/svg" xmlns:xlink="http://www.w3.org/1999/xlink" width="56" height="56" viewBox="0 0 56 56">
  <defs>
    <linearGradient id="linear-gradient" x1="0.5" x2="0.5" y2="1" gradientUnits="objectBoundingBox">
      <stop offset="0" stop-color="#427dfb"/>
      <stop offset="1" stop-color="#3e58f7"/>
    </linearGradient>
  </defs>
  <path id="Path_677" data-name="Path 677" d="M11,31l2,3,2-3-1-7H12Z" transform="translate(-2.034 -3.654)" fill="url(#linear-gradient)"/>
  <path id="Path_678" data-name="Path 678" d="M51,29c2.187,0,3.964-2.207,3.995-4.932A8.162,8.162,0,0,0,54,24H47C47,26.757,48.794,29,51,29Z" transform="translate(-7 -3.421)" fill="url(#linear-gradient)"/>
  <path id="Path_679" data-name="Path 679" d="M50.412,21.022a6.3,6.3,0,0,0,2.07-4.634A8.114,8.114,0,0,0,48.871,1H38.032a8.12,8.12,0,0,0-7.863,6.1l1.749.452a6.316,6.316,0,0,1,6.115-4.742H48.871A6.318,6.318,0,0,1,52.2,14.5a6.3,6.3,0,0,0-.786-1.647,4.509,4.509,0,0,0-2.547-8.235H38.032a4.529,4.529,0,0,0-3.893,2.255l1.562.909a2.681,2.681,0,0,1,2.331-1.358H48.871a2.707,2.707,0,0,1,1.323,5.071,6.3,6.3,0,0,0-8.45.349H38.032A2.681,2.681,0,0,1,35.7,10.481l-1.562.909a4.529,4.529,0,0,0,3.893,2.255h2.425a6.266,6.266,0,0,0-.546,1.806H38.032a6.316,6.316,0,0,1-6.115-4.742l-1.75.451a8.122,8.122,0,0,0,7.864,6.1h1.879a6.3,6.3,0,0,0,1.834,3.613H16.255a6.311,6.311,0,0,0,1.834-3.613h1.878a8.12,8.12,0,0,0,7.863-6.1l-1.749-.452a6.316,6.316,0,0,1-6.115,4.742H18.089a6.266,6.266,0,0,0-.546-1.806h2.425a4.529,4.529,0,0,0,3.893-2.255L22.3,10.481a2.681,2.681,0,0,1-2.331,1.358H16.255a6.3,6.3,0,0,0-8.45-.349A2.707,2.707,0,0,1,9.129,6.419H19.968A2.681,2.681,0,0,1,22.3,7.777l1.562-.909a4.529,4.529,0,0,0-3.893-2.255H9.129a4.509,4.509,0,0,0-2.547,8.235A6.3,6.3,0,0,0,5.8,14.494,6.318,6.318,0,0,1,9.129,2.806H19.968a6.316,6.316,0,0,1,6.115,4.742l1.75-.451A8.122,8.122,0,0,0,19.968,1H9.129A8.115,8.115,0,0,0,5.518,16.389a6.3,6.3,0,0,0,2.07,4.633A8.139,8.139,0,0,0,1,29v5.419a4.521,4.521,0,0,0,4.516,4.516V53.387a3.6,3.6,0,0,0,6.323,2.365,3.6,3.6,0,0,0,6.323-2.365V28.1a.9.9,0,0,1,.9-.9H38.935a.9.9,0,0,1,.9.9v25.29a3.6,3.6,0,0,0,6.323,2.365,3.6,3.6,0,0,0,6.323-2.365V38.935A4.521,4.521,0,0,0,57,34.419V29A8.139,8.139,0,0,0,50.412,21.022Zm-8.767-4.667a4.516,4.516,0,1,1,4.516,4.516A4.521,4.521,0,0,1,41.645,16.355Zm-34.323,0a4.516,4.516,0,1,1,4.516,4.516A4.521,4.521,0,0,1,7.323,16.355ZM16.355,28.1v25.29a1.806,1.806,0,0,1-3.613,0V35.323H10.935V53.387a1.806,1.806,0,0,1-3.613,0V26.29H5.516V37.129a2.713,2.713,0,0,1-2.71-2.71V29a6.33,6.33,0,0,1,6.323-6.323H24.8a3.053,3.053,0,0,0,0,2.71H19.065A2.713,2.713,0,0,0,16.355,28.1Zm38.839,6.323a2.713,2.713,0,0,1-2.71,2.71V26.29H50.677v27.1a1.806,1.806,0,0,1-3.613,0V35.323H45.258V53.387a1.806,1.806,0,0,1-3.613,0V28.1a2.713,2.713,0,0,0-2.71-2.71H27.645a1.355,1.355,0,0,1,0-2.71H48.871A6.33,6.33,0,0,1,55.194,29Z" transform="translate(-1 -1)"/>
  <path id="Path_680" data-name="Path 680" d="M42,13H22a3,3,0,0,1,0-6H42a3,3,0,0,1,0,6Z" transform="translate(-4 -1)" fill="url(#linear-gradient)"/>
</svg>
